<svg xmlns="http://www.w3.org/2000/svg" width="319" height="413" viewBox="0 0 319 413" fill="none">
  <path d="M115.8 129.466H105.964V0H115.8V129.466ZM99.6616 130.443L72.7074 3.82407L63.0839 5.86358L90.0807 132.525L99.7042 130.486L99.6616 130.443ZM84.1193 134.777L31.318 16.5285L22.3332 20.5225L75.092 138.814L84.0767 134.82L84.1193 134.777ZM69.8118 142.256L-6.49459 37.5184L-14.4574 43.297L61.8065 148.034L69.7693 142.256H69.8118ZM57.3354 152.538L-39.0696 65.9015L-45.6698 73.2098L50.7352 159.846L57.3354 152.538ZM47.2861 165.158L-65.087 100.403L-70.0265 108.901L42.3466 173.655L47.2861 165.115V165.158ZM40.0898 179.604L-83.312 139.579L-86.3779 148.926L37.0239 188.909L40.0472 179.562L40.0898 179.604ZM36.0446 195.198L-92.978 181.644L-94 191.416L35.0226 204.928L36.0446 195.155V195.198ZM36.3852 221.074L35.3632 211.301L-93.6593 224.856L-92.6374 234.628L36.3852 221.074ZM41.0692 236.54L38.0459 227.192L-85.3559 267.218L-82.29 276.565L41.1118 236.54H41.0692ZM48.9042 250.689L43.9648 242.191L-68.4084 306.903L-63.4689 315.401L48.9042 250.647V250.689ZM59.5071 262.926L52.9069 255.618L-43.4981 342.255L-36.8979 349.563L59.5071 262.926ZM72.4093 272.699L64.4465 266.92L-11.8173 371.658L-3.85452 377.436L72.4093 272.699ZM87.0574 279.582L78.0727 275.588L25.314 393.837L34.2987 397.831L87.0574 279.582ZM102.813 283.279L93.1892 281.239L66.1924 407.859L75.8159 409.898L102.813 283.279ZM118.994 283.576H109.157V413.042H118.994V283.576ZM161.874 407.136L134.919 280.517L125.296 282.557L152.25 409.176L161.874 407.136ZM202.582 392.52L149.823 274.271L140.838 278.265L193.597 396.514L202.582 392.52ZM239.372 369.745L163.108 265.008L155.146 270.787L231.409 375.524L239.372 369.745ZM270.627 339.833L174.222 253.196L167.622 260.504L264.027 347.141L270.627 339.833ZM294.941 304.099L182.611 239.387L177.671 247.885L290.002 312.639L294.941 304.099ZM311.293 264.116L187.934 224.091L184.868 233.438L308.269 273.464L311.293 264.116ZM318.957 221.626L189.935 208.072L188.913 217.845L317.935 231.399L318.957 221.626ZM318.617 188.229L317.595 178.457L188.572 191.969L189.594 201.741L318.617 188.229ZM310.313 145.867L307.29 136.519L183.888 176.502L186.912 185.85L310.313 145.867ZM293.323 106.139L288.384 97.6413L176.053 162.353L180.993 170.851L293.323 106.139ZM268.456 70.8303L261.855 63.5221L165.45 150.116L172.051 157.424L268.456 70.8303ZM236.775 41.4275L228.812 35.6489L152.548 140.386L160.511 146.165L236.775 41.4275ZM199.643 19.2478L190.659 15.2538L137.9 133.503L146.885 137.497L199.643 19.2478ZM158.722 5.26872L149.099 3.22922L122.102 129.849L131.726 131.888L158.765 5.22623L158.722 5.26872Z" fill="white"/>
</svg>