<svg xmlns="http://www.w3.org/2000/svg" width="67" height="106" viewBox="0 0 67 106" fill="none">
  <g clip-path="url(#clip0_11_39)">
    <path d="M19.46 85.5C19.46 90.9 15.08 95.28 9.67999 95.28C15.08 95.28 19.46 99.66 19.46 105.06C19.46 99.66 23.84 95.28 29.24 95.28C23.84 95.28 19.46 90.9 19.46 85.5Z" fill="white"/>
    <path d="M65.75 13.49C68.31 19.47 55.86 30.54 37.93 38.23C20.01 45.92 3.39999 47.31 0.829994 41.33C-1.73001 35.35 10.72 24.28 28.65 16.59C46.58 8.9 63.18 7.51 65.75 13.49Z" stroke="white" stroke-miterlimit="10"/>
    <path d="M65.75 31.12C68.31 37.1 55.86 48.17 37.93 55.86C20.01 63.55 3.39999 64.94 0.829994 58.96C-1.73001 52.98 10.72 41.91 28.65 34.22C46.57 26.53 63.18 25.14 65.75 31.12Z" stroke="white" stroke-miterlimit="10"/>
    <path d="M65.75 48.86C68.31 54.84 55.86 65.91 37.93 73.6C20 81.29 3.38999 82.68 0.829994 76.7C-1.73001 70.72 10.72 59.65 28.65 51.96C46.57 44.27 63.18 42.88 65.75 48.86Z" stroke="white" stroke-miterlimit="10"/>
    <path d="M65.75 66.49C68.31 72.47 55.86 83.54 37.93 91.23C20 98.92 3.38999 100.31 0.829994 94.33C-1.73001 88.35 10.72 77.28 28.65 69.59C46.57 61.9 63.18 60.51 65.75 66.49Z" stroke="white" stroke-miterlimit="10"/>
  </g>
  <defs>
    <clipPath id="clip0_11_39">
      <rect width="66.58" height="105.06" fill="white"/>
    </clipPath>
  </defs>
</svg>