<svg width="134" height="31" viewBox="0 0 134 31" fill="none" xmlns="http://www.w3.org/2000/svg">
<g id="Capa_1" clip-path="url(#clip0_16_19)">
<g id="Group">
<path id="Vector" d="M49.2193 29.5811C41.5019 29.5811 35.2458 23.4445 35.2458 15.8745C35.2458 8.30459 41.5019 2.16077 49.2193 2.16077C56.9366 2.16077 63.1927 8.29738 63.1927 15.8673C63.1927 23.4373 56.9366 29.5739 49.2193 29.5739V29.5811Z" stroke="white" stroke-width="1.5" stroke-miterlimit="10"/>
<g id="Group_2">
<path id="Vector_2" d="M59.9398 10.559C59.6828 9.60825 58.9265 8.85918 57.9646 8.60708C56.217 8.14612 49.2266 8.14612 49.2266 8.14612C49.2266 8.14612 42.2288 8.14612 40.4886 8.60708C39.5267 8.85918 38.7704 9.60825 38.5134 10.559C38.0434 12.2804 38.0434 15.8745 38.0434 15.8745C38.0434 15.8745 38.0434 19.4686 38.5134 21.19C38.7704 22.1408 39.5267 22.8898 40.4886 23.1419C42.2362 23.6029 49.2266 23.6029 49.2266 23.6029C49.2266 23.6029 56.2243 23.6029 57.9646 23.1419C58.9265 22.8898 59.6828 22.1408 59.9398 21.19C60.4098 19.4686 60.4098 15.8745 60.4098 15.8745C60.4098 15.8745 60.4098 12.2804 59.9398 10.559Z" fill="white"/>
<path id="Vector_3" d="M46.9356 19.13V12.6117L52.7805 15.8745L46.9356 19.13Z" fill="black"/>
</g>
</g>
<g id="Group_3">
<path id="Vector_4" d="M84.465 27.9533C76.7476 27.9533 70.4915 21.8166 70.4915 14.2467C70.4915 6.67678 76.7476 0.540161 84.465 0.540161C92.1823 0.540161 98.4385 6.67678 98.4385 14.2467C98.4385 21.8166 92.1823 27.9533 84.465 27.9533Z" stroke="white" stroke-width="1.5" stroke-miterlimit="10"/>
<path id="Vector_5" d="M77.0193 18.8348C78.3704 19.6847 79.9785 20.1817 81.7041 20.1817C87.3728 20.1817 90.5816 15.4856 90.3907 11.2648C90.9855 10.8399 91.5068 10.3141 91.918 9.71627C91.3673 9.95396 90.7799 10.1124 90.1631 10.1844C90.7946 9.81711 91.2792 9.2265 91.5068 8.52785C90.9194 8.87357 90.2659 9.11846 89.5683 9.25531C89.0102 8.6719 88.2172 8.31177 87.3361 8.31177C85.3608 8.31177 83.9143 10.1196 84.3622 11.9923C81.8216 11.8699 79.5746 10.6742 78.062 8.85917C77.2616 10.2061 77.6435 11.9707 79.0092 12.8638C78.5099 12.8494 78.04 12.7126 77.6214 12.4893C77.5921 13.8794 78.6054 15.1758 80.074 15.464C79.6407 15.5792 79.1708 15.608 78.6935 15.5144C79.0827 16.7028 80.2135 17.5743 81.5499 17.5959C80.2649 18.5827 78.6495 19.022 77.0267 18.8348H77.0193Z" fill="white"/>
</g>
<g id="Group_4">
<path id="Vector_6" d="M133.684 15.1471C133.684 7.57718 127.428 1.44055 119.711 1.44055C111.993 1.44055 105.737 7.57718 105.737 15.1471C105.737 22.717 111.993 28.8537 119.711 28.8537C127.428 28.8537 133.684 22.717 133.684 15.1471Z" stroke="white" stroke-width="1.5" stroke-miterlimit="10"/>
<path id="Vector_7" d="M117.581 23.4301H120.981V15.0751H123.353L123.603 12.2805H120.974V10.6887C120.974 10.0261 121.106 9.76678 121.759 9.76678H123.603V6.86414H121.245C118.712 6.86414 117.574 7.95893 117.574 10.0477V12.2805H115.804V15.1111H117.574V23.4301H117.581Z" fill="white"/>
</g>
<g id="Group_5">
<path id="Vector_8" d="M14.5242 28.8537C6.80684 28.8537 0.550713 22.717 0.550713 15.1471C0.550713 7.57717 6.80684 1.44055 14.5242 1.44055C22.2415 1.44055 28.4977 7.57717 28.4977 15.1471C28.4977 22.717 22.2415 28.8537 14.5242 28.8537Z" stroke="white" stroke-width="1.5" stroke-miterlimit="10"/>
<g id="Group_6">
<path id="Vector_9" d="M14.5242 8.98885C16.5729 8.98885 16.8152 8.99606 17.6229 9.03207C18.3719 9.06808 18.7757 9.19053 19.0474 9.29136C19.4072 9.42821 19.6569 9.59387 19.9285 9.85317C20.2002 10.1197 20.3618 10.3646 20.5013 10.7175C20.6041 10.984 20.7289 11.3801 20.7656 12.1148C20.8023 12.9071 20.8097 13.1448 20.8097 15.1543C20.8097 17.1638 20.8023 17.4015 20.7656 18.1938C20.7289 18.9284 20.6041 19.3246 20.5013 19.5911C20.3618 19.944 20.1929 20.1889 19.9285 20.4554C19.6642 20.7147 19.4072 20.8804 19.0474 21.0172C18.7757 21.118 18.3719 21.2405 17.6229 21.2765C16.8152 21.3125 16.5729 21.3197 14.5242 21.3197C12.4755 21.3197 12.2332 21.3125 11.4255 21.2765C10.6765 21.2405 10.2727 21.118 10.001 21.0172C9.64119 20.8804 9.39153 20.7147 9.11984 20.4554C8.84816 20.1889 8.68661 19.944 8.5471 19.5911C8.4443 19.3246 8.31947 18.9284 8.28276 18.1938C8.24604 17.4015 8.2387 17.1638 8.2387 15.1543C8.2387 13.1448 8.24604 12.9071 8.28276 12.1148C8.31947 11.3801 8.4443 10.984 8.5471 10.7175C8.68661 10.3646 8.8555 10.1197 9.11984 9.85317C9.39153 9.58667 9.64119 9.42821 10.001 9.29136C10.2727 9.19053 10.6765 9.06808 11.4255 9.03207C12.2332 8.99606 12.4755 8.98885 14.5242 8.98885ZM14.5242 7.63477C12.4462 7.63477 12.1818 7.64197 11.3668 7.67798C10.5517 7.71399 9.99364 7.84364 9.50901 8.03091C9.00236 8.22538 8.57647 8.47747 8.15058 8.89522C7.7247 9.31297 7.46035 9.73072 7.26944 10.2277C7.07853 10.7031 6.9537 11.2505 6.91698 12.05C6.88027 12.8494 6.87292 13.1087 6.87292 15.1471C6.87292 17.1854 6.88027 17.4447 6.91698 18.2442C6.9537 19.0437 7.08587 19.5911 7.26944 20.0665C7.4677 20.5634 7.7247 20.9812 8.15058 21.3989C8.57647 21.8167 9.00236 22.076 9.50901 22.2633C9.99364 22.4505 10.5517 22.573 11.3668 22.6162C12.1818 22.6522 12.4462 22.6594 14.5242 22.6594C16.6022 22.6594 16.8666 22.6522 17.6816 22.6162C18.4967 22.5802 19.0547 22.4505 19.5394 22.2633C20.046 22.0688 20.4719 21.8167 20.8978 21.3989C21.3237 20.9812 21.588 20.5634 21.7789 20.0665C21.9699 19.5911 22.0947 19.0437 22.1387 18.2442C22.1755 17.4447 22.1828 17.1854 22.1828 15.1471C22.1828 13.1087 22.1755 12.8494 22.1387 12.05C22.102 11.2505 21.9699 10.7031 21.7789 10.2277C21.5807 9.73072 21.3237 9.31297 20.8978 8.89522C20.4719 8.47747 20.046 8.21818 19.5394 8.03091C19.0547 7.84364 18.4967 7.7212 17.6816 7.67798C16.8666 7.64197 16.6022 7.63477 14.5242 7.63477Z" fill="white"/>
<path id="Vector_10" d="M14.5242 11.2865C12.3507 11.2865 10.5884 13.0151 10.5884 15.1471C10.5884 17.2791 12.3507 19.0077 14.5242 19.0077C16.6977 19.0077 18.46 17.2791 18.46 15.1471C18.46 13.0151 16.6977 11.2865 14.5242 11.2865ZM14.5242 17.6536C13.1144 17.6536 11.9689 16.53 11.9689 15.1471C11.9689 13.7642 13.1144 12.6406 14.5242 12.6406C15.934 12.6406 17.0795 13.7642 17.0795 15.1471C17.0795 16.53 15.934 17.6536 14.5242 17.6536Z" fill="white"/>
<path id="Vector_11" d="M19.532 11.1352C19.532 11.6322 19.1208 12.0355 18.6142 12.0355C18.1075 12.0355 17.6963 11.6322 17.6963 11.1352C17.6963 10.6382 18.1075 10.2349 18.6142 10.2349C19.1208 10.2349 19.532 10.6382 19.532 11.1352Z" fill="white"/>
</g>
</g>
</g>
<defs>
<clipPath id="clip0_16_19">
<rect width="134" height="31" fill="white"/>
</clipPath>
</defs>
</svg>
