<svg xmlns="http://www.w3.org/2000/svg" width="139" height="139" viewBox="0 0 139 139" fill="none">
  <g clip-path="url(#clip0_11_30)">
    <path d="M70.6107 43.5734H67.3001V0H70.6107V43.5734ZM65.1791 43.9023L56.1073 1.28704L52.8684 1.97346L61.9545 44.603L65.1934 43.9166L65.1791 43.9023ZM59.9481 45.3609L42.1772 5.56286L39.1533 6.9071L56.9099 46.7194L59.9338 45.3752L59.9481 45.3609ZM55.1328 47.8778L29.451 12.6273L26.771 14.5721L52.4385 49.8226L55.1185 47.8778H55.1328ZM50.9337 51.3385L18.4875 22.1799L16.2661 24.6396L48.7123 53.7981L50.9337 51.3385ZM47.5515 55.5857L9.731 33.7919L8.06856 36.652L45.8891 58.4458L47.5515 55.5714V55.5857ZM45.1295 60.4478L3.59717 46.9769L2.56532 50.1229L44.0976 63.5796L45.1152 60.4335L45.1295 60.4478ZM43.768 65.6961L0.343953 61.1343L0 64.4234L43.4241 68.9709L43.768 65.6818V65.6961ZM43.8827 74.405L43.5387 71.116L0.114651 75.6778L0.458604 78.9669L43.8827 74.405ZM45.4591 79.6104L44.4416 76.4643L2.90927 89.9353L3.94113 93.0814L45.4734 79.6104H45.4591ZM48.0961 84.3724L46.4337 81.5123L8.61316 103.292L10.2756 106.152L48.0961 84.3581V84.3724ZM51.6646 88.491L49.4432 86.0313L16.997 115.19L19.2184 117.649L51.6646 88.491ZM56.007 91.78L53.327 89.8352L27.6596 125.086L30.3395 127.031L56.007 91.78ZM60.937 94.0967L57.9131 92.7525L40.1565 132.551L43.1804 133.895L60.937 94.0967ZM66.2396 95.3408L63.0007 94.6544L53.9146 137.27L57.1535 137.956L66.2396 95.3408ZM71.6855 95.4409H68.375V139.014H71.6855V95.4409ZM86.1172 137.027L77.0455 94.4113L73.8066 95.0977L82.8783 137.713L86.1172 137.027ZM99.818 132.107L82.0614 92.3092L79.0375 93.6534L96.7941 133.451L99.818 132.107ZM112.2 124.442L86.5328 89.1917L83.8529 91.1365L109.52 126.387L112.2 124.442ZM122.72 114.375L90.2733 85.2162L88.052 87.6758L120.498 116.834L122.72 114.375ZM130.903 102.348L93.0966 80.5685L91.4342 83.4286L129.24 105.222L130.903 102.348ZM136.406 88.8914L94.888 75.4204L93.8562 78.5665L135.388 92.0375L136.406 88.8914ZM138.986 74.591L95.5616 70.0291L95.2177 73.3182L138.642 77.88L138.986 74.591ZM138.871 63.3508L138.527 60.0617L95.103 64.6093L95.447 67.8984L138.871 63.3508ZM136.076 49.0933L135.059 45.9472L93.5266 59.4039L94.5441 62.55L136.076 49.0933ZM130.358 35.7224L128.696 32.8623L90.8896 54.6419L92.552 57.502L130.358 35.7224ZM121.989 23.8388L119.767 21.3791L87.3211 50.5234L89.5424 52.983L121.989 23.8388ZM111.326 13.9429L108.646 11.998L82.9787 47.2486L85.6586 49.1934L111.326 13.9429ZM98.8292 6.47809L95.8052 5.13385L78.0487 44.9319L81.0726 46.2761L98.8292 6.47809ZM85.0567 1.77325L81.8178 1.08683L72.7317 43.7021L75.9706 44.3885L85.071 1.75895L85.0567 1.77325Z" fill="#FF0000"/>
  </g>
  <defs>
    <clipPath id="clip0_11_30">
      <rect width="139" height="139" fill="white"/>
    </clipPath>
  </defs>
</svg>